<svg width="1041" height="1041" viewBox="0 0 1041 1041" fill="none" xmlns="http://www.w3.org/2000/svg">
<path d="M1020.78 473.857L566.526 19.6289C560.305 13.4059 552.919 8.46942 544.79 5.10145C536.66 1.73349 527.947 0 519.148 0C510.349 0 501.636 1.73349 493.506 5.10145C485.377 8.46942 477.991 13.4059 471.77 19.6289L377.444 113.965L497.102 233.613C511.167 228.83 526.291 228.081 540.76 231.452C555.229 234.823 568.464 242.178 578.967 252.685C589.527 263.259 596.899 276.589 600.242 291.153C603.586 305.718 602.765 320.929 597.874 335.049L713.176 450.371C741.077 440.762 773.274 446.982 795.549 469.297C802.955 476.698 808.83 485.486 812.838 495.159C816.847 504.831 818.91 515.199 818.91 525.669C818.91 536.139 816.847 546.507 812.838 556.179C808.83 565.852 802.955 574.64 795.549 582.041C782.52 595.083 765.373 603.206 747.028 605.028C728.683 606.85 710.273 602.259 694.933 592.035C679.592 581.811 668.269 566.587 662.89 548.953C657.511 531.32 658.41 512.368 665.432 495.322L557.893 387.783L557.883 670.791C565.679 674.646 572.799 679.738 578.967 685.869C586.373 693.273 592.247 702.062 596.255 711.737C600.263 721.411 602.325 731.779 602.325 742.251C602.325 752.722 600.263 763.091 596.255 772.765C592.247 782.439 586.373 791.229 578.967 798.633C547.815 829.785 497.327 829.785 466.223 798.633C456.931 789.347 450.077 777.91 446.271 765.337C442.465 752.764 441.824 739.445 444.407 726.565C446.989 713.685 452.714 701.643 461.072 691.509C469.431 681.374 480.164 673.463 492.317 668.477V382.832C482.54 378.84 473.666 372.921 466.223 365.43C442.629 341.865 436.956 307.246 449.045 278.271L331.096 160.303L19.6314 471.748C13.4075 477.972 8.4704 485.36 5.10204 493.492C1.73368 501.623 0 510.339 0 519.141C0 527.942 1.73368 536.658 5.10204 544.789C8.4704 552.921 13.4075 560.31 19.6314 566.533L473.889 1020.77C486.456 1033.33 503.498 1040.39 521.267 1040.39C539.037 1040.39 556.078 1033.33 568.645 1020.77L1020.78 568.652C1033.35 556.079 1040.41 539.031 1040.41 521.255C1040.41 503.479 1033.35 486.431 1020.78 473.857" fill="white"/>
</svg>
