<svg width="133" height="24" viewBox="0 0 133 24" fill="none" xmlns="http://www.w3.org/2000/svg">
<path d="M68.4477 8.1402C69.0729 8.49694 69.5882 9.03144 69.9339 9.68161C70.3006 10.3868 70.4855 11.1794 70.4705 11.9815C70.4841 12.7866 70.2993 13.5819 69.9339 14.2911C69.5881 14.9436 69.073 15.4812 68.4477 15.842C67.7869 16.2122 67.0463 16.3999 66.2964 16.3872C65.7659 16.3934 65.2396 16.2889 64.7484 16.0798C64.2881 15.8827 63.883 15.5672 63.5709 15.1628V16.2731H61.735V4.34414H63.6544V8.73499C63.9763 8.36379 64.3738 8.07249 64.8177 7.88243C65.2849 7.68388 65.7853 7.58441 66.2897 7.58982C67.0403 7.57649 67.7814 7.7661 68.441 8.1402H68.4477ZM67.8235 13.9288C68.0549 13.6673 68.2345 13.3607 68.352 13.0265C68.4694 12.6923 68.5224 12.3372 68.5078 11.9815C68.5231 11.6265 68.4704 11.2718 68.3529 10.9383C68.2355 10.6047 68.0555 10.2989 67.8235 10.0387C67.5985 9.79371 67.3267 9.60091 67.0256 9.47277C66.7246 9.34464 66.401 9.28406 66.0761 9.29495C65.6379 9.28652 65.2056 9.40112 64.8243 9.62675C64.4509 9.84604 64.1459 10.1728 63.9456 10.5681C63.7245 11.0026 63.6133 11.4888 63.6227 11.9807C63.6139 12.4741 63.725 12.9619 63.9456 13.3984C64.1475 13.7914 64.4522 14.1164 64.8243 14.3355C65.2056 14.5611 65.6379 14.6757 66.0761 14.6673C66.4006 14.6779 66.7236 14.6177 67.0245 14.4906C67.3254 14.3634 67.5975 14.172 67.8235 13.9288Z" fill="#3B3B44"/>
<path d="M78.1762 8.50422C78.5135 8.86334 78.7728 9.29391 78.9366 9.76675C79.1005 10.2396 79.165 10.7437 79.1259 11.2448V16.2749H77.3067V15.2142C77.0588 15.5997 76.7068 15.8998 76.2953 16.0763C75.7951 16.2877 75.2584 16.3888 74.7189 16.3733C74.1623 16.3867 73.6096 16.2735 73.0992 16.0415C72.6676 15.8492 72.2972 15.533 72.031 15.1297C71.7788 14.7372 71.6464 14.2742 71.6513 13.8016C71.6398 13.446 71.7085 13.0924 71.852 12.7696C71.9955 12.4468 72.2098 12.1637 72.4775 11.9432C73.2509 11.4172 74.169 11.1723 75.0894 11.2465H77.2124V11.1177C77.2243 10.8663 77.1847 10.6151 77.0962 10.381C77.0077 10.1469 76.8724 9.93516 76.6992 9.75999C76.2643 9.40239 75.7178 9.22583 75.1654 9.26447C74.7028 9.26426 74.243 9.33948 73.8027 9.48741C73.3898 9.62107 73.0048 9.83467 72.6677 10.117L71.9167 8.65488C72.383 8.29175 72.912 8.02565 73.4747 7.87111C74.1017 7.68386 74.751 7.59033 75.4032 7.5933C76.406 7.52274 77.3977 7.84819 78.1812 8.50509L78.1762 8.50422ZM76.4096 14.581C76.7786 14.3598 77.0597 14.0084 77.2024 13.59V12.5981H75.2171C74.1122 12.5946 73.5598 12.972 73.5598 13.7302C73.5552 13.9 73.5909 14.0684 73.6637 14.2203C73.7365 14.3722 73.8442 14.503 73.9771 14.6011C74.3185 14.8352 74.7233 14.9482 75.1312 14.9233C75.5826 14.9324 76.0277 14.8119 76.418 14.5749" fill="#3B3B44"/>
<path d="M88.8135 8.54341C89.1486 8.91931 89.4059 9.36324 89.5693 9.8475C89.7326 10.3318 89.7987 10.8459 89.7632 11.358V16.274H87.8655V11.6167C87.9085 11.0033 87.7269 10.3958 87.3573 9.91675C87.1705 9.72422 86.9475 9.5742 86.7023 9.47618C86.4571 9.37815 86.1951 9.33423 85.9329 9.34721C85.6234 9.33049 85.314 9.38134 85.0245 9.49651C84.735 9.61167 84.4716 9.78861 84.2514 10.016C83.8121 10.545 83.5902 11.2334 83.6338 11.9319V16.2731H81.6903V7.69171H83.5262V8.80205C83.8481 8.40117 84.2613 8.09097 84.7279 7.89984C85.2485 7.68858 85.8033 7.5842 86.3618 7.59243C86.8109 7.57506 87.2588 7.65018 87.6801 7.8135C88.1013 7.97682 88.4876 8.22514 88.8169 8.54428" fill="#3B3B44"/>
<path d="M95.6405 12.5911L94.211 14.0089V16.2731H92.2834V4.34414H94.211V11.5496L98.1999 7.6891H100.512L97.0742 11.2918L100.835 16.2722H98.4937L95.6405 12.5911Z" fill="#3B3B44"/>
<path d="M102.128 5.92997C102.015 5.81924 101.925 5.68564 101.864 5.53738C101.803 5.38911 101.771 5.22932 101.771 5.06782C101.771 4.90633 101.803 4.74653 101.864 4.59827C101.925 4.45001 102.015 4.31641 102.128 4.20568C102.367 3.97634 102.682 3.85352 103.007 3.86343C103.328 3.85401 103.642 3.97084 103.885 4.19087C103.998 4.29385 104.088 4.42122 104.148 4.56409C104.209 4.70697 104.239 4.86193 104.237 5.01818C104.241 5.18376 104.213 5.34853 104.153 5.50205C104.094 5.65557 104.004 5.79447 103.89 5.90994C103.775 6.03025 103.637 6.12443 103.485 6.18662C103.333 6.2488 103.171 6.27764 103.007 6.27134C102.683 6.28125 102.368 6.15843 102.129 5.9291L102.128 5.92997ZM102.034 7.68823H103.961V16.2722H102.031L102.034 7.68823Z" fill="#3B3B44"/>
<path d="M113.812 8.54341C114.147 8.91931 114.404 9.36324 114.567 9.8475C114.731 10.3318 114.797 10.8459 114.761 11.358V16.274H112.814V11.6167C112.867 11.0078 112.697 10.4008 112.34 9.91675C112.15 9.72098 111.923 9.56909 111.673 9.47096C111.424 9.37283 111.157 9.33066 110.891 9.34721C110.581 9.33017 110.272 9.38087 109.982 9.49605C109.693 9.61123 109.43 9.78835 109.209 10.016C108.77 10.545 108.548 11.2334 108.592 11.9319V16.2731H106.693V7.69084H108.528V8.80118C108.85 8.4003 109.264 8.0901 109.73 7.89897C110.251 7.68771 110.806 7.58333 111.364 7.59156C111.819 7.56927 112.275 7.64197 112.703 7.80541C113.131 7.96885 113.523 8.21974 113.858 8.54341" fill="#3B3B44"/>
<path d="M125.446 7.69258V14.9782C125.446 17.9971 123.966 19.5066 121.006 19.5066C120.247 19.5107 119.491 19.4055 118.759 19.194C118.119 19.0226 117.521 18.7139 117.002 18.2874L117.866 16.7782C118.27 17.1159 118.733 17.3698 119.228 17.5263C119.767 17.709 120.331 17.8027 120.897 17.8041C121.614 17.8691 122.326 17.6398 122.883 17.1649C123.112 16.897 123.286 16.5829 123.395 16.242C123.504 15.9012 123.544 15.5407 123.514 15.1828V14.7317C123.184 15.1177 122.771 15.4162 122.308 15.6026C121.813 15.7994 121.286 15.8969 120.755 15.8899C120.017 15.9006 119.288 15.7211 118.633 15.3674C118.012 15.0277 117.495 14.5125 117.141 13.8809C116.79 13.2236 116.607 12.4831 116.609 11.7305C116.612 10.978 116.8 10.2388 117.155 9.58408C117.512 8.96217 118.029 8.45733 118.647 8.12714C119.305 7.78485 120.034 7.61479 120.77 7.63162C121.325 7.62512 121.876 7.72947 122.394 7.93903C122.871 8.1361 123.293 8.45677 123.619 8.87085V7.73264L125.446 7.69258ZM122.848 13.5055C123.078 13.281 123.26 13.008 123.381 12.7048C123.502 12.4015 123.56 12.0748 123.551 11.7464C123.563 11.419 123.506 11.0929 123.385 10.7908C123.263 10.4886 123.08 10.2177 122.848 9.99686C122.342 9.558 121.705 9.31776 121.046 9.31776C120.388 9.31776 119.751 9.558 119.244 9.99686C119.013 10.2183 118.831 10.4894 118.709 10.7913C118.588 11.0933 118.531 11.4192 118.542 11.7464C118.531 12.078 118.588 12.4083 118.709 12.715C118.83 13.0218 119.013 13.2981 119.244 13.5256C119.749 13.9672 120.387 14.2091 121.046 14.2091C121.705 14.2091 122.343 13.9672 122.848 13.5256" fill="#3B3B44"/>
<path d="M129.692 8.7707V3.79028H125.007V0.34082H133V8.7707H129.692Z" fill="#3B3B44"/>
<path d="M129.693 8.7707V3.79028H125.008V0.34082H133.001V8.7707H129.693Z" fill="#9000FA"/>
<path d="M7.98778 23.4299H0V15H3.30543V19.983H7.99278V23.4325L7.98778 23.4299Z" fill="#5503E5"/>
<path d="M55.7286 16.4845L53.6299 13.278H51.8441V16.4845H48.5678V4.41617L53.8535 4.41095C54.7887 4.38735 55.718 4.57139 56.5798 4.95088C57.3083 5.27595 57.9292 5.81707 58.3656 6.5071C58.7959 7.21619 59.0162 8.04195 58.999 8.88105C59.0162 9.68492 58.8136 10.4773 58.4149 11.1653C58.004 11.8286 57.4208 12.3563 56.7333 12.6867L59.231 16.4827L55.7286 16.4845ZM51.8441 10.6367H53.6582C54.2023 10.679 54.743 10.5172 55.1829 10.1804C55.3548 10.017 55.4896 9.81568 55.5775 9.59106C55.6654 9.36643 55.7042 9.12417 55.6911 8.88192C55.704 8.6375 55.6652 8.39311 55.5774 8.16613C55.4895 7.93915 55.3548 7.73516 55.1829 7.56867C54.7439 7.22933 54.2031 7.06501 53.6582 7.10538H51.8432L51.8441 10.6367ZM37.399 16.4845V4.41617H46.4699V7.05312H40.6401V9.08483H45.7781V11.6338H40.6401V13.8388H46.6852V16.4801L37.399 16.4845ZM29.3044 16.4845V7.12192H25.7528V4.41617H36.1097V7.10538H32.5906V16.4836L29.3044 16.4845ZM21.3892 16.4845L16.2838 10.0515V16.4845H13.0835V4.41617H15.7722L20.8776 10.844V4.41617H24.0829V16.4836L21.3892 16.4845ZM7.55078 16.4845V4.41617H10.8228V16.4836L7.55078 16.4845Z" fill="url(#paint0_linear)"/>
<defs>
<linearGradient id="paint0_linear" x1="54.5002" y1="-5.50012" x2="54.0161" y2="19.8651" gradientUnits="userSpaceOnUse">
<stop stop-color="#6200EA"/>
<stop offset="1" stop-color="#AA00FF"/>
</linearGradient>
</defs>
</svg>
