<svg width="2199" height="2500" viewBox="0 0 2199 2500" fill="none" xmlns="http://www.w3.org/2000/svg">
<g clip-path="url(#clip0)">
<rect x="1172" y="389" width="757" height="1662" fill="#EBEBEB"/>
<path d="M204.028 2247.13L-0.0883789 0.128662L2198.88 0.986282L1996.48 2245.41L1097.68 2499.27L204.028 2247.13ZM1830.96 2124.49L2001.63 199.957H1101.11L1107.97 2322.6L1830.96 2124.49V2124.49ZM1017.06 482.118H798.368L795.795 1633.92L371.267 1518.14L372.124 1781.43L1017.06 1955.53V482.118V482.118Z" fill="#D4B830"/>
<path opacity="0.986" d="M372.124 1781.43L371.267 1518.14C371.267 1518.14 642.279 1594.47 795.795 1633.92L798.368 482.976H1017.06V1955.53L372.124 1781.43V1781.43Z" fill="#EBEBEB" fill-opacity="0.9216"/>
<path d="M1101.11 199.099H2001.63L1830.96 2123.63L1101.11 2321.74V199.099ZM1784.65 1801.16L1843.82 1081.6L1406.43 1130.49V746.269L1872.98 744.554L1891.85 482.118L1187.73 485.549L1197.17 1440.95L1622.55 1368.05L1616.55 1580.75L1187.73 1694.81L1192.02 1955.53L1784.65 1801.16Z" fill="#FDD83C"/>
</g>
<defs>
<clipPath id="clip0">
<rect width="2199" height="2500" fill="white"/>
</clipPath>
</defs>
</svg>
