<svg width="32" height="32" viewBox="0 0 32 32" fill="none" xmlns="http://www.w3.org/2000/svg">
<path d="M16 0C7.172 0 0 7.172 0 16C0 24.828 7.172 32 16 32C24.828 32 32 24.828 32 16C32 7.172 24.828 0 16 0ZM16 1C19.828 1 23.307 2.443 25.958 4.802H6.041C8.781 2.349 12.322 1 15.999 1H16ZM6.417 5.802H25.584L16.001 24.963L6.417 5.802ZM4.802 6.042V25.959C2.349 23.219 1 19.678 1 16.001C1 12.173 2.443 8.694 4.802 6.043V6.042ZM27.198 6.042C29.651 8.782 31 12.323 31 16C31 19.828 29.557 23.307 27.198 25.958V6.042ZM5.802 6.802L15.5 26.198H5.802V6.802ZM26.198 6.802V26.198H16.5L26.203 6.802H26.198ZM6.042 27.198H25.959C23.219 29.651 19.673 31 16.001 31C12.329 31 8.782 29.651 6.043 27.198H6.042Z" fill="white"/>
</svg>
