<svg width="498" height="438" viewBox="0 0 498 438" fill="none" xmlns="http://www.w3.org/2000/svg">
<path d="M401.545 333.144C400.343 325.088 398.755 316.791 396.791 308.307C395.056 300.857 393.04 293.26 390.752 285.549C384.733 265.299 376.803 244.255 367.19 222.981C362.979 213.681 358.444 204.34 353.606 195.009C349.343 186.786 344.85 178.552 340.116 170.37C335.393 162.178 330.524 154.174 325.519 146.369C319.866 137.519 314.046 128.93 308.09 120.633C294.485 101.668 280.223 84.271 265.688 68.931C260.161 63.09 254.591 57.552 249.001 52.338C242.638 46.382 236.243 40.855 229.858 35.787C188.177 2.69502 150.864 -7.24198 124.773 7.81502C98.682 22.882 88.63 60.164 96.446 112.817C97.637 120.873 99.236 129.17 101.211 137.654C102.925 145.104 104.941 152.701 107.24 160.412C113.259 180.662 121.189 201.717 130.813 222.98C135.014 232.28 139.548 241.61 144.386 250.941C148.649 259.175 153.153 267.398 157.876 275.59C162.599 283.782 167.468 291.786 172.473 299.591C178.136 308.452 183.956 317.041 189.902 325.337C203.507 344.302 217.769 361.689 232.304 377.028C237.832 382.869 243.411 388.417 249.001 393.631C255.364 399.587 261.759 405.104 268.133 410.172C283.462 422.345 298.195 431.383 311.998 437.183C344.724 428.907 374.943 414.321 401.284 394.802C404.961 377.855 405.097 357.093 401.545 333.144ZM378.076 391C375.035 404.145 369.445 413.152 361.452 417.76C353.469 422.378 342.874 422.713 329.969 418.784C315.988 414.51 299.667 405.169 282.761 391.742C277.077 387.228 271.382 382.317 265.687 377.04C260.107 371.857 254.527 366.319 248.99 360.457C239.481 350.395 230.077 339.381 220.903 327.564C214.78 319.675 208.751 311.431 202.868 302.873C194.331 290.47 186.087 277.409 178.25 263.825C170.403 250.241 163.214 236.574 156.746 222.98C152.274 213.607 148.146 204.266 144.385 195.019C138.732 181.164 133.894 167.507 129.934 154.247C127.635 146.515 125.619 138.929 123.936 131.5C122.201 123.935 120.791 116.537 119.725 109.359C116.549 88.012 116.622 69.204 119.913 54.962C122.954 41.817 128.554 32.81 136.537 28.202C140.852 25.715 145.92 24.461 151.698 24.461C156.63 24.461 162.084 25.37 168.019 27.188C182 31.451 198.321 40.803 215.227 54.22C220.911 58.734 226.616 63.645 232.301 68.943C237.891 74.115 243.461 79.653 248.988 85.505C258.507 95.567 267.911 106.581 277.096 118.409C283.219 126.298 289.248 134.542 295.131 143.1C303.657 155.503 311.902 168.564 319.738 182.137C327.585 195.721 334.774 209.388 341.242 222.982C345.714 232.365 349.842 241.707 353.603 250.954C359.256 264.809 364.094 278.456 368.054 291.715C370.353 299.447 372.369 307.033 374.062 314.462C375.786 322.027 377.197 329.425 378.263 336.603C381.441 357.95 381.368 376.758 378.076 391Z" fill="#F2F2F2"/>
<path d="M420.677 145.961C413.101 142.973 405.118 140.204 396.78 137.654C389.466 135.428 381.88 133.37 374.053 131.5C353.51 126.589 331.317 122.932 308.089 120.633C297.943 119.619 287.588 118.878 277.097 118.407C267.839 117.979 258.456 117.759 249 117.759C239.544 117.759 230.16 117.978 220.892 118.407C210.391 118.877 200.036 119.63 189.89 120.633C166.662 122.932 144.479 126.589 123.936 131.5C116.11 133.37 108.524 135.429 101.209 137.654C92.8709 140.193 84.8879 142.973 77.3119 145.961C27.8159 165.5 0.543945 192.856 0.543945 222.98C0.543945 253.104 27.8159 280.46 77.313 300.01C84.889 302.998 92.8609 305.767 101.199 308.317C108.513 310.543 116.099 312.601 123.926 314.461C144.469 319.382 166.662 323.029 189.901 325.338C200.047 326.341 210.402 327.083 220.903 327.564C230.161 327.992 239.544 328.201 249 328.201C258.456 328.201 267.829 327.992 277.087 327.564C287.588 327.083 297.933 326.341 308.089 325.338C331.317 323.039 353.521 319.382 374.064 314.461C381.89 312.591 389.476 310.543 396.791 308.307C405.119 305.768 413.102 302.999 420.677 300.01C470.184 280.46 497.446 253.105 497.446 222.98C497.445 192.856 470.184 165.5 420.677 145.961ZM459.045 250.753C448.366 260.732 432.108 270.188 412.035 278.119C405.275 280.783 398.169 283.27 390.75 285.548C383.467 287.795 375.892 289.853 368.055 291.713C354.586 294.921 340.344 297.554 325.517 299.592C315.632 300.961 305.486 302.058 295.131 302.863C280.116 304.065 264.683 304.671 248.999 304.671C233.315 304.671 217.882 304.065 202.867 302.874C192.512 302.059 182.356 300.962 172.471 299.593C157.644 297.555 143.402 294.922 129.933 291.714C122.096 289.854 114.521 287.796 107.238 285.549C99.8189 283.271 92.7139 280.784 85.9529 278.12C65.8809 270.189 49.6219 260.733 38.9429 250.754C29.0789 241.548 24.0739 232.207 24.0739 222.981C24.0739 213.755 29.0789 204.413 38.9429 195.208C49.6219 185.229 65.8799 175.773 85.9529 167.842C92.7129 165.178 99.8189 162.691 107.238 160.413C114.521 158.166 122.096 156.108 129.933 154.248C143.402 151.04 157.644 148.407 172.471 146.369C182.356 145 192.512 143.903 202.867 143.088C217.882 141.897 233.315 141.291 248.999 141.291C264.683 141.291 280.116 141.897 295.131 143.099C305.486 143.904 315.632 145.001 325.517 146.37C340.344 148.408 354.586 151.041 368.055 154.249C375.892 156.109 383.467 158.167 390.75 160.414C398.169 162.692 405.274 165.179 412.035 167.843C432.107 175.774 448.366 185.23 459.045 195.209C468.909 204.415 473.914 213.756 473.914 222.982C473.914 232.207 468.909 241.548 459.045 250.753Z" fill="#F2F2F2"/>
<path d="M373.217 7.81502C347.126 -7.24198 309.813 2.69502 268.132 35.787C261.758 40.855 255.363 46.382 249 52.338C243.41 57.552 237.83 63.1 232.303 68.941C217.768 84.28 203.506 101.667 189.891 120.632C183.946 128.928 178.125 137.518 172.473 146.368C167.468 154.173 162.599 162.177 157.876 170.369C153.153 178.561 148.65 186.784 144.386 195.018C139.548 204.349 135.013 213.69 130.813 222.979C121.189 244.253 113.259 265.297 107.24 285.547C104.941 293.269 102.925 300.865 101.2 308.315C99.236 316.8 97.637 325.086 96.446 333.142C92.893 357.081 93.029 377.843 96.707 394.791C123.049 414.32 153.267 428.907 185.994 437.183C199.797 431.384 214.53 422.345 229.859 410.172C236.243 405.104 242.638 399.577 249.002 393.631C254.592 388.417 260.162 382.879 265.689 377.038C280.213 361.699 294.486 344.301 308.091 325.336C314.036 317.039 319.857 308.45 325.52 299.59C330.525 291.785 335.394 283.781 340.117 275.589C344.85 267.407 349.343 259.184 353.607 250.95C358.445 241.619 362.98 232.278 367.191 222.978C376.804 201.714 384.735 180.66 390.753 160.41C393.041 152.699 395.058 145.102 396.782 137.652C398.757 129.167 400.345 120.871 401.547 112.815C409.36 60.164 399.309 22.882 373.217 7.81502ZM368.056 154.247C364.096 167.507 359.258 181.153 353.605 195.008C349.843 204.255 345.716 213.597 341.244 222.98C334.776 236.574 327.587 250.241 319.74 263.825C311.903 277.398 303.659 290.459 295.133 302.862C289.24 311.43 283.211 319.674 277.088 327.563C267.914 339.381 258.51 350.394 248.991 360.456C243.464 366.307 237.894 371.845 232.304 377.028C226.62 382.315 220.915 387.226 215.23 391.74C198.324 405.167 182.002 414.508 168.022 418.782C155.118 422.711 144.522 422.376 136.539 417.758C128.556 413.15 122.955 404.143 119.915 390.998C116.624 376.756 116.55 357.948 119.727 336.601C120.793 329.423 122.203 322.025 123.927 314.46C125.62 307.031 127.636 299.445 129.935 291.713C133.895 278.453 138.733 264.796 144.386 250.941C148.148 241.694 152.275 232.352 156.747 222.98C163.215 209.386 170.404 195.719 178.251 182.135C186.088 168.551 194.332 155.49 202.869 143.087C208.752 134.529 214.77 126.285 220.893 118.407C230.078 106.579 239.482 95.566 248.99 85.503C254.528 79.641 260.108 74.103 265.687 68.931C271.382 63.644 277.076 58.733 282.761 54.219C299.667 40.803 315.989 31.451 329.969 27.187C335.904 25.369 341.358 24.46 346.29 24.46C352.068 24.46 357.146 25.714 361.451 28.201C369.444 32.809 375.035 41.816 378.075 54.961C381.366 69.203 381.44 88.011 378.263 109.358C377.197 116.536 375.787 123.934 374.052 131.499C372.371 138.928 370.354 146.514 368.056 154.247Z" fill="#F2F2F2"/>
<path d="M249 269.676C274.789 269.676 295.696 248.77 295.696 222.98C295.696 197.191 274.789 176.284 249 176.284C223.21 176.284 202.304 197.191 202.304 222.98C202.304 248.77 223.21 269.676 249 269.676Z" fill="#F2F2F2"/>
</svg>
