<svg width="1418" height="884" viewBox="0 0 1418 884" fill="none" xmlns="http://www.w3.org/2000/svg">
<path d="M801.626 152.914L925.025 0.000337729H437.326C430.506 -0.0267686 423.753 1.57807 417.476 4.71738C411.2 7.85669 405.53 12.465 400.813 18.2623L293.964 176.533H754.253C763.098 176.59 771.861 174.525 780.006 170.464C788.151 166.403 795.507 160.432 801.626 152.914" fill="white"/>
<path d="M929.834 549.319C918.492 549.335 907.473 553.765 898.493 561.92L715.567 728.408L680.968 883.939H830.949C840.504 883.941 849.788 880.213 857.35 873.339C864.912 866.466 870.323 856.835 872.737 845.954L903.458 707.164H1149.12C1165.66 707.157 1181.6 699.86 1193.8 686.71L1295.38 549.319H929.834Z" fill="white"/>
<path d="M0 884H457.186C465.967 883.997 474.656 881.897 482.728 877.827C490.8 873.757 498.086 867.801 504.145 860.32L628.268 707.163H153.343C145.04 707.174 136.838 709.314 129.308 713.435C121.779 717.556 115.103 723.559 109.745 731.025L0 884Z" fill="white"/>
<path d="M732.169 659.622L883.082 520.77C894.135 510.684 907.729 505.221 921.715 505.247H942.402L1006.22 208.186C1008.11 199.167 1012.5 191.15 1018.7 185.413C1024.91 179.676 1032.57 176.549 1040.46 176.532H1209.37L1138.62 505.247H1310.58L1382.06 169.897L1295.17 0H1000.38L829.709 198.629L732.169 659.622Z" fill="white"/>
<path d="M258.071 101.05H193.631C189.923 101.042 186.263 102.03 182.928 103.94C179.594 105.849 176.675 108.629 174.392 112.068L131.259 176.533H192.907C197.472 176.541 201.979 175.323 206.084 172.97C210.189 170.618 213.783 167.193 216.593 162.958L258.071 101.05Z" fill="white"/>
<path d="M1418 628.637H1351.54C1348.47 628.631 1345.44 629.451 1342.68 631.033C1339.92 632.616 1337.5 634.919 1335.61 637.768L1291.19 704.728H1355.01C1358.94 704.739 1362.83 703.691 1366.37 701.666C1369.91 699.64 1373.01 696.69 1375.44 693.041L1418 628.637Z" fill="white"/>
<path d="M277.879 214.7L243.694 280.869C241.168 291.251 240.95 302.222 243.06 312.731C245.17 323.241 249.538 332.937 255.744 340.89L476.114 623.341L468.873 664.309H644.714L661.057 590.348C663.582 579.174 663.629 567.424 661.194 556.223C658.758 545.021 653.92 534.742 647.145 526.37L399.52 215.917L277.879 214.7Z" fill="white"/>
</svg>
